<svg width="151" height="37" viewBox="0 0 151 37" fill="none" xmlns="http://www.w3.org/2000/svg">
<path d="M23.9547 18.5101C23.9547 15.355 21.3878 12.788 18.2327 12.788C15.0776 12.788 12.5106 15.355 12.5106 18.5101C12.5106 21.6652 15.0776 24.2322 18.2327 24.2322C21.3878 24.2322 23.9547 21.6652 23.9547 18.5101ZM18.2327 19.5198C17.6759 19.5198 17.223 19.0669 17.223 18.5101C17.223 17.9533 17.6759 17.5003 18.2327 17.5003C18.7895 17.5003 19.2425 17.9533 19.2425 18.5101C19.2425 19.0669 18.7895 19.5198 18.2327 19.5198Z" fill="#0052B4"/>
<path d="M16.0791 22.3181C16.7152 22.6792 17.4504 22.8858 18.2327 22.8858C19.0151 22.8858 19.7503 22.6792 20.3864 22.3181M19.8402 20.231C20.4672 20.5049 21.0214 20.9345 21.4417 21.4819C22.1653 20.7011 22.6084 19.6564 22.6084 18.5101C22.6084 16.0972 20.6454 14.1344 18.2327 14.1344C15.8199 14.1344 13.857 16.0975 13.857 18.5101C13.857 19.6564 14.3004 20.7008 15.0241 21.4817C15.4443 20.9345 15.9985 20.5046 16.6253 20.231C16.1649 19.8007 15.8766 19.1885 15.8766 18.5101C15.8766 17.2109 16.9335 16.154 18.2327 16.154M23.9547 18.5101C23.9547 15.355 21.3878 12.788 18.2327 12.788C15.0776 12.788 12.5106 15.355 12.5106 18.5101C12.5106 21.6652 15.0776 24.2321 18.2327 24.2321C21.3878 24.2321 23.9547 21.6652 23.9547 18.5101ZM18.2327 19.5198C17.6759 19.5198 17.223 19.0669 17.223 18.5101C17.223 17.9533 17.6759 17.5003 18.2327 17.5003C18.7895 17.5003 19.2425 17.9533 19.2425 18.5101C19.2425 19.0669 18.7895 19.5198 18.2327 19.5198Z" stroke="#0052B4"/>
<path d="M27.6581 18.5104C27.6581 13.3136 23.4303 9.08612 18.2339 9.08612C13.0374 9.08612 8.80963 13.3139 8.80963 18.5104C8.80963 23.7068 13.0374 27.9346 18.2339 27.9346C23.4303 27.9346 27.6581 23.7068 27.6581 18.5104ZM10.1551 18.5104C10.1551 14.0561 13.779 10.4322 18.2333 10.4322C22.6875 10.4322 26.3114 14.0561 26.3114 18.5104C26.3114 22.9647 22.6875 26.5885 18.2333 26.5885C13.779 26.5885 10.1551 22.9647 10.1551 18.5104Z" fill="#0052B4" stroke="#0052B4"/>
<path d="M5.01306 11.6545C5.11909 11.7158 5.23473 11.7449 5.34893 11.7449C5.58166 11.7449 5.80789 11.6242 5.93244 11.4081C8.07222 7.70198 11.8206 5.14066 16.0337 4.47717C16.3741 5.36051 17.2317 5.98873 18.2333 5.98873C19.5325 5.98873 20.5894 4.93183 20.5894 3.63261C20.5894 2.33339 19.5325 1.27649 18.2333 1.27649C17.1062 1.27649 16.1614 2.07206 15.9308 3.13087C13.7064 3.46506 11.5525 4.28853 9.67505 5.5262C7.66655 6.85022 5.96918 8.65118 4.76635 10.7345C4.5805 11.0566 4.69085 11.4682 5.01278 11.654L5.01306 11.6545ZM18.2336 2.62297C18.7904 2.62297 19.2433 3.07593 19.2433 3.63273C19.2433 4.18953 18.7904 4.64249 18.2336 4.64249C17.6768 4.64249 17.2238 4.18953 17.2238 3.63273C17.2238 3.07593 17.6768 2.62297 18.2336 2.62297Z" fill="#0052B4" stroke="#0052B4"/>
<path d="M11.131 30.8113C7.42463 28.6715 4.86294 24.9231 4.20068 20.71C5.08378 20.3698 5.71224 19.512 5.71224 18.5104C5.71224 17.2112 4.65534 16.1543 3.35612 16.1543C2.0569 16.1543 1 17.2112 1 18.5104C1 19.6375 1.79557 20.5824 2.85438 20.8127C3.18857 23.0371 4.01204 25.191 5.24971 27.0684C6.57373 29.0769 8.37469 30.7743 10.458 31.9771C10.564 32.0384 10.6796 32.0675 10.7938 32.0675C11.0266 32.0675 11.2528 31.9468 11.3773 31.7307C11.5632 31.4088 11.4528 30.9972 11.1309 30.8111L11.131 30.8113ZM2.34624 18.5103C2.34624 17.9535 2.7992 17.5005 3.356 17.5005C3.9128 17.5005 4.36576 17.9535 4.36576 18.5103C4.36576 19.0671 3.9128 19.5201 3.356 19.5201C2.7992 19.5201 2.34624 19.0671 2.34624 18.5103Z" fill="#0052B4" stroke="#0052B4"/>
<path d="M31.4529 25.3662C31.1307 25.1804 30.7191 25.2907 30.5333 25.6126C28.3935 29.319 24.6451 31.8807 20.432 32.5436C20.0918 31.6605 19.234 31.032 18.2324 31.032C16.9332 31.032 15.8763 32.0889 15.8763 33.3881C15.8763 34.6873 16.9332 35.7442 18.2324 35.7442C19.3595 35.7442 20.3044 34.9487 20.5349 33.8899C22.7593 33.5557 24.9133 32.7322 26.7907 31.4945C28.7992 30.1705 30.4965 28.3696 31.6994 26.2863C31.8852 25.9643 31.7749 25.5525 31.4529 25.3667L31.4529 25.3662ZM18.2323 34.3978C17.6755 34.3978 17.2226 33.9448 17.2226 33.388C17.2226 32.8312 17.6755 32.3782 18.2323 32.3782C18.7891 32.3782 19.2421 32.8312 19.2421 33.388C19.2421 33.9448 18.7891 34.3978 18.2323 34.3978Z" fill="#0052B4" stroke="#0052B4"/>
<path d="M33.612 16.2079C33.2778 13.9835 32.4543 11.8296 31.2166 9.95215C29.8926 7.94365 28.0917 6.24628 26.0084 5.04345C25.6862 4.8576 25.2746 4.96795 25.0888 5.28988C24.903 5.61181 25.0133 6.02341 25.3352 6.20947C29.0416 8.34925 31.6033 12.0976 32.2661 16.3107C31.3831 16.6509 30.7546 17.5088 30.7546 18.5103C30.7546 19.8096 31.8115 20.8665 33.1107 20.8665C34.4099 20.8665 35.4668 19.8096 35.4668 18.5103C35.4668 17.3833 34.6713 16.4384 33.6124 16.2078L33.612 16.2079ZM33.1102 19.5199C32.5534 19.5199 32.1004 19.067 32.1004 18.5102C32.1004 17.9534 32.5534 17.5004 33.1102 17.5004C33.667 17.5004 34.12 17.9534 34.12 18.5102C34.12 19.067 33.667 19.5199 33.1102 19.5199Z" fill="#0052B4" stroke="#0052B4"/>
<path d="M57.794 26V22.664H66.266V26H57.794ZM57.794 12.536V9.2H66.266V12.536H57.794ZM57.794 18.8V15.536H65.786V18.8H57.794ZM55.106 9.2H58.994V26H55.106V9.2ZM77.583 7.28H81.207V26H77.583V7.28ZM68.559 20.48C68.559 19.232 68.807 18.184 69.303 17.336C69.815 16.488 70.471 15.84 71.271 15.392C72.071 14.944 72.919 14.72 73.815 14.72C74.743 14.72 75.559 14.952 76.263 15.416C76.983 15.88 77.551 16.544 77.967 17.408C78.383 18.256 78.591 19.28 78.591 20.48C78.591 21.664 78.383 22.688 77.967 23.552C77.551 24.416 76.983 25.08 76.263 25.544C75.559 26.008 74.743 26.24 73.815 26.24C72.919 26.24 72.071 26.016 71.271 25.568C70.471 25.12 69.815 24.472 69.303 23.624C68.807 22.76 68.559 21.712 68.559 20.48ZM72.375 20.48C72.375 21.056 72.495 21.56 72.735 21.992C72.975 22.408 73.295 22.736 73.695 22.976C74.095 23.2 74.535 23.312 75.015 23.312C75.431 23.312 75.831 23.2 76.215 22.976C76.615 22.752 76.943 22.432 77.199 22.016C77.455 21.584 77.583 21.072 77.583 20.48C77.583 19.888 77.455 19.384 77.199 18.968C76.943 18.536 76.615 18.208 76.215 17.984C75.831 17.76 75.431 17.648 75.015 17.648C74.535 17.648 74.095 17.768 73.695 18.008C73.295 18.232 72.975 18.56 72.735 18.992C72.495 19.408 72.375 19.904 72.375 20.48ZM87.8115 21.68C87.8115 22.32 87.9315 22.824 88.1715 23.192C88.4115 23.544 88.8275 23.72 89.4195 23.72C89.8195 23.72 90.1555 23.64 90.4275 23.48C90.7155 23.32 90.9395 23.088 91.0995 22.784C91.2595 22.48 91.3395 22.112 91.3395 21.68V14.96H94.9635V26H91.3395V24.344C91.0035 24.936 90.5635 25.408 90.0195 25.76C89.4755 26.096 88.7955 26.264 87.9795 26.264C86.6035 26.264 85.5955 25.896 84.9555 25.16C84.3315 24.408 84.0195 23.376 84.0195 22.064V14.96H87.8115V21.68ZM106.512 19.928V16.808H115.008C115.088 18.152 114.952 19.408 114.6 20.576C114.248 21.744 113.704 22.776 112.968 23.672C112.232 24.568 111.312 25.272 110.208 25.784C109.104 26.28 107.84 26.528 106.416 26.528C105.072 26.528 103.84 26.32 102.72 25.904C101.6 25.472 100.632 24.864 99.8161 24.08C99.0001 23.28 98.3601 22.336 97.8961 21.248C97.4481 20.144 97.2241 18.928 97.2241 17.6C97.2241 16.272 97.4561 15.072 97.9201 14C98.3841 12.912 99.0401 11.984 99.8881 11.216C100.736 10.448 101.728 9.856 102.864 9.44C104 9.024 105.232 8.816 106.56 8.816C107.744 8.816 108.808 8.984 109.752 9.32C110.696 9.656 111.528 10.128 112.248 10.736C112.984 11.328 113.616 12.016 114.144 12.8L110.544 14.672C110.16 14 109.64 13.448 108.984 13.016C108.344 12.568 107.536 12.344 106.56 12.344C105.632 12.344 104.776 12.552 103.992 12.968C103.224 13.384 102.608 13.984 102.144 14.768C101.696 15.536 101.472 16.48 101.472 17.6C101.472 18.704 101.688 19.664 102.12 20.48C102.568 21.28 103.168 21.904 103.92 22.352C104.688 22.784 105.568 23 106.56 23C107.168 23 107.72 22.928 108.216 22.784C108.712 22.624 109.136 22.408 109.488 22.136C109.84 21.848 110.136 21.52 110.376 21.152C110.632 20.768 110.832 20.36 110.976 19.928H106.512ZM120.179 22.544C120.179 22.832 120.251 23.08 120.395 23.288C120.539 23.48 120.731 23.632 120.971 23.744C121.211 23.84 121.475 23.888 121.763 23.888C122.179 23.888 122.563 23.8 122.915 23.624C123.267 23.448 123.555 23.184 123.779 22.832C124.003 22.48 124.115 22.048 124.115 21.536L124.499 22.976C124.499 23.68 124.307 24.28 123.923 24.776C123.539 25.256 123.043 25.624 122.435 25.88C121.827 26.12 121.171 26.24 120.467 26.24C119.763 26.24 119.107 26.112 118.499 25.856C117.907 25.584 117.427 25.184 117.059 24.656C116.707 24.128 116.531 23.488 116.531 22.736C116.531 21.68 116.907 20.848 117.659 20.24C118.411 19.616 119.475 19.304 120.851 19.304C121.523 19.304 122.123 19.368 122.651 19.496C123.195 19.624 123.659 19.784 124.043 19.976C124.427 20.168 124.715 20.368 124.907 20.576V22.184C124.523 21.896 124.075 21.68 123.563 21.536C123.067 21.376 122.539 21.296 121.979 21.296C121.547 21.296 121.203 21.344 120.947 21.44C120.691 21.536 120.499 21.68 120.371 21.872C120.243 22.048 120.179 22.272 120.179 22.544ZM118.571 18.344L117.347 15.92C117.971 15.616 118.723 15.328 119.603 15.056C120.483 14.784 121.443 14.648 122.483 14.648C123.459 14.648 124.331 14.792 125.099 15.08C125.867 15.352 126.475 15.752 126.923 16.28C127.371 16.808 127.595 17.456 127.595 18.224V26H124.115V19.04C124.115 18.768 124.067 18.536 123.971 18.344C123.891 18.136 123.763 17.96 123.587 17.816C123.411 17.672 123.187 17.568 122.915 17.504C122.659 17.44 122.363 17.408 122.027 17.408C121.531 17.408 121.043 17.464 120.563 17.576C120.099 17.688 119.691 17.824 119.339 17.984C118.987 18.128 118.731 18.248 118.571 18.344ZM129.013 14.96H136.405V17.96H129.013V14.96ZM130.957 11.12H134.437V26H130.957V11.12ZM143.565 26.24C142.285 26.24 141.173 26.008 140.229 25.544C139.301 25.064 138.581 24.392 138.069 23.528C137.557 22.664 137.301 21.648 137.301 20.48C137.301 19.296 137.549 18.272 138.045 17.408C138.541 16.544 139.253 15.88 140.181 15.416C141.125 14.952 142.237 14.72 143.517 14.72C144.797 14.72 145.877 14.944 146.757 15.392C147.637 15.824 148.309 16.456 148.773 17.288C149.237 18.12 149.469 19.128 149.469 20.312C149.469 20.488 149.469 20.664 149.469 20.84C149.469 21 149.453 21.136 149.421 21.248H139.341V19.232H146.157L145.293 20.336C145.373 20.224 145.437 20.088 145.485 19.928C145.549 19.752 145.581 19.608 145.581 19.496C145.581 19.016 145.493 18.6 145.317 18.248C145.141 17.896 144.893 17.624 144.573 17.432C144.253 17.24 143.877 17.144 143.445 17.144C142.901 17.144 142.445 17.264 142.077 17.504C141.709 17.744 141.429 18.112 141.237 18.608C141.061 19.088 140.965 19.696 140.949 20.432C140.949 21.104 141.045 21.68 141.237 22.16C141.429 22.64 141.717 23.008 142.101 23.264C142.485 23.504 142.957 23.624 143.517 23.624C144.157 23.624 144.701 23.504 145.149 23.264C145.613 23.024 145.981 22.664 146.253 22.184L149.493 22.976C148.917 24.064 148.133 24.88 147.141 25.424C146.165 25.968 144.973 26.24 143.565 26.24Z" fill="#0052B4"/>
</svg>
