<svg width="123" height="29" viewBox="0 0 123 29" fill="none" xmlns="http://www.w3.org/2000/svg">
<path d="M18.9833 14.5011C18.9833 12.0294 16.9723 10.0184 14.5006 10.0184C12.0288 10.0184 10.0178 12.0294 10.0178 14.5011C10.0178 16.9729 12.0288 18.9839 14.5006 18.9839C16.9723 18.9839 18.9833 16.9729 18.9833 14.5011ZM14.5006 15.2922C14.0644 15.2922 13.7096 14.9374 13.7096 14.5011C13.7096 14.0649 14.0644 13.7101 14.5006 13.7101C14.9368 13.7101 15.2917 14.0649 15.2917 14.5011C15.2917 14.9374 14.9368 15.2922 14.5006 15.2922Z" fill="white"/>
<path d="M12.8134 17.4844C13.3118 17.7673 13.8877 17.9291 14.5006 17.9291C15.1135 17.9291 15.6895 17.7673 16.1878 17.4844M15.7599 15.8494C16.2512 16.0639 16.6853 16.4005 17.0145 16.8293C17.5815 16.2176 17.9286 15.3992 17.9286 14.5011C17.9286 12.6109 16.3907 11.0732 14.5006 11.0732C12.6103 11.0732 11.0726 12.6111 11.0726 14.5011C11.0726 15.3992 11.4199 16.2174 11.9869 16.8291C12.3161 16.4005 12.7503 16.0637 13.2413 15.8494C12.8806 15.5122 12.6548 15.0327 12.6548 14.5011C12.6548 13.4833 13.4828 12.6553 14.5006 12.6553M18.9833 14.5011C18.9833 12.0294 16.9723 10.0184 14.5006 10.0184C12.0288 10.0184 10.0178 12.0294 10.0178 14.5011C10.0178 16.9729 12.0288 18.9839 14.5006 18.9839C16.9723 18.9839 18.9833 16.9729 18.9833 14.5011ZM14.5006 15.2922C14.0644 15.2922 13.7096 14.9374 13.7096 14.5011C13.7096 14.0649 14.0644 13.7101 14.5006 13.7101C14.9368 13.7101 15.2917 14.0649 15.2917 14.5011C15.2917 14.9374 14.9368 15.2922 14.5006 15.2922Z" stroke="white"/>
<path d="M21.8841 14.5012C21.8841 10.4299 18.572 7.11807 14.501 7.11807C10.43 7.11807 7.11792 10.4302 7.11792 14.5012C7.11792 18.5721 10.43 21.8842 14.501 21.8842C18.572 21.8842 21.8841 18.5721 21.8841 14.5012ZM8.17196 14.5012C8.17196 11.0116 11.011 8.17259 14.5005 8.17259C17.9901 8.17259 20.8291 11.0116 20.8291 14.5012C20.8291 17.9907 17.9901 20.8297 14.5005 20.8297C11.011 20.8297 8.17196 17.9907 8.17196 14.5012Z" fill="white" stroke="white"/>
<path d="M4.14381 9.13031C4.22688 9.17834 4.31747 9.20113 4.40694 9.20113C4.58926 9.20113 4.7665 9.10658 4.86406 8.93725C6.5404 6.03383 9.47695 4.02725 12.7775 3.50746C13.0442 4.19948 13.7161 4.69164 14.5007 4.69164C15.5186 4.69164 16.3466 3.86365 16.3466 2.84582C16.3466 1.82799 15.5186 1 14.5007 1C13.6178 1 12.8776 1.62326 12.6969 2.45275C10.9543 2.71456 9.26687 3.35968 7.79608 4.32928C6.2226 5.36654 4.89285 6.77744 3.95053 8.40951C3.80494 8.6619 3.89139 8.98436 4.14359 9.12993L4.14381 9.13031ZM14.501 2.05485C14.9372 2.05485 15.292 2.40971 15.292 2.84591C15.292 3.28212 14.9372 3.63697 14.501 3.63697C14.0648 3.63697 13.7099 3.28212 13.7099 2.84591C13.7099 2.40971 14.0648 2.05485 14.501 2.05485Z" fill="white" stroke="white"/>
<path d="M8.93677 24.1379C6.03315 22.4616 4.02628 19.525 3.50746 16.2244C4.19929 15.9579 4.69164 15.2859 4.69164 14.5012C4.69164 13.4834 3.86365 12.6554 2.84582 12.6554C1.82799 12.6554 1 13.4834 1 14.5012C1 15.3842 1.62326 16.1244 2.45275 16.3048C2.71456 18.0475 3.35968 19.7349 4.32928 21.2057C5.36654 22.7792 6.77744 24.1089 8.40951 25.0512C8.49258 25.0993 8.58317 25.1221 8.67263 25.1221C8.85496 25.1221 9.03219 25.0275 9.12976 24.8582C9.27536 24.606 9.18891 24.2835 8.9367 24.1378L8.93677 24.1379ZM2.05466 14.5011C2.05466 14.0649 2.40952 13.7101 2.84572 13.7101C3.28193 13.7101 3.63678 14.0649 3.63678 14.5011C3.63678 14.9373 3.28193 15.2922 2.84572 15.2922C2.40952 15.2922 2.05466 14.9373 2.05466 14.5011Z" fill="white" stroke="white"/>
<path d="M24.8575 19.8723C24.6051 19.7267 24.2827 19.8131 24.1371 20.0653C22.4608 22.9689 19.5242 24.9758 16.2236 25.4951C15.9571 24.8033 15.2851 24.3109 14.5004 24.3109C13.4826 24.3109 12.6546 25.1389 12.6546 26.1567C12.6546 27.1746 13.4826 28.0026 14.5004 28.0026C15.3834 28.0026 16.1236 27.3793 16.3042 26.5498C18.0469 26.288 19.7343 25.6429 21.2051 24.6733C22.7786 23.636 24.1083 22.2251 25.0506 20.5931C25.1962 20.3409 25.1098 20.0182 24.8576 19.8726L24.8575 19.8723ZM14.5004 26.9477C14.0642 26.9477 13.7093 26.5929 13.7093 26.1567C13.7093 25.7205 14.0642 25.3656 14.5004 25.3656C14.9366 25.3656 15.2914 25.7205 15.2914 26.1567C15.2914 26.5929 14.9366 26.9477 14.5004 26.9477Z" fill="white" stroke="white"/>
<path d="M26.5488 12.6974C26.287 10.9547 25.6419 9.26729 24.6723 7.79651C23.635 6.22302 22.2241 4.89328 20.592 3.95096C20.3396 3.80537 20.0172 3.89182 19.8716 4.14402C19.726 4.39622 19.8125 4.71868 20.0647 4.86444C22.9683 6.54077 24.9751 9.47733 25.4945 12.7779C24.8026 13.0444 24.3103 13.7165 24.3103 14.5011C24.3103 15.5189 25.1383 16.3469 26.1561 16.3469C27.1739 16.3469 28.0019 15.5189 28.0019 14.5011C28.0019 13.6182 27.3787 12.8779 26.5492 12.6973L26.5488 12.6974ZM26.1557 15.292C25.7195 15.292 25.3646 14.9372 25.3646 14.501C25.3646 14.0648 25.7195 13.7099 26.1557 13.7099C26.5919 13.7099 26.9468 14.0648 26.9468 14.501C26.9468 14.9372 26.5919 15.292 26.1557 15.292Z" fill="white" stroke="white"/>
<path d="M45.7161 21V18.22H52.7761V21H45.7161ZM45.7161 9.78V7H52.7761V9.78H45.7161ZM45.7161 15V12.28H52.3761V15H45.7161ZM43.4761 7H46.7161V21H43.4761V7ZM62.2069 5.4H65.2269V21H62.2069V5.4ZM54.6869 16.4C54.6869 15.36 54.8935 14.4867 55.3069 13.78C55.7335 13.0733 56.2802 12.5333 56.9469 12.16C57.6135 11.7867 58.3202 11.6 59.0669 11.6C59.8402 11.6 60.5202 11.7933 61.1069 12.18C61.7069 12.5667 62.1802 13.12 62.5269 13.84C62.8735 14.5467 63.0469 15.4 63.0469 16.4C63.0469 17.3867 62.8735 18.24 62.5269 18.96C62.1802 19.68 61.7069 20.2333 61.1069 20.62C60.5202 21.0067 59.8402 21.2 59.0669 21.2C58.3202 21.2 57.6135 21.0133 56.9469 20.64C56.2802 20.2667 55.7335 19.7267 55.3069 19.02C54.8935 18.3 54.6869 17.4267 54.6869 16.4ZM57.8669 16.4C57.8669 16.88 57.9669 17.3 58.1669 17.66C58.3669 18.0067 58.6335 18.28 58.9669 18.48C59.3002 18.6667 59.6669 18.76 60.0669 18.76C60.4135 18.76 60.7469 18.6667 61.0669 18.48C61.4002 18.2933 61.6735 18.0267 61.8869 17.68C62.1002 17.32 62.2069 16.8933 62.2069 16.4C62.2069 15.9067 62.1002 15.4867 61.8869 15.14C61.6735 14.78 61.4002 14.5067 61.0669 14.32C60.7469 14.1333 60.4135 14.04 60.0669 14.04C59.6669 14.04 59.3002 14.14 58.9669 14.34C58.6335 14.5267 58.3669 14.8 58.1669 15.16C57.9669 15.5067 57.8669 15.92 57.8669 16.4ZM70.7306 17.4C70.7306 17.9333 70.8306 18.3533 71.0306 18.66C71.2306 18.9533 71.5773 19.1 72.0706 19.1C72.404 19.1 72.684 19.0333 72.9106 18.9C73.1506 18.7667 73.3373 18.5733 73.4706 18.32C73.604 18.0667 73.6706 17.76 73.6706 17.4V11.8H76.6906V21H73.6706V19.62C73.3906 20.1133 73.024 20.5067 72.5706 20.8C72.1173 21.08 71.5506 21.22 70.8706 21.22C69.724 21.22 68.884 20.9133 68.3506 20.3C67.8306 19.6733 67.5706 18.8133 67.5706 17.72V11.8H70.7306V17.4ZM86.3145 15.94V13.34H93.3945C93.4612 14.46 93.3479 15.5067 93.0545 16.48C92.7612 17.4533 92.3079 18.3133 91.6945 19.06C91.0812 19.8067 90.3145 20.3933 89.3945 20.82C88.4745 21.2333 87.4212 21.44 86.2345 21.44C85.1145 21.44 84.0879 21.2667 83.1545 20.92C82.2212 20.56 81.4145 20.0533 80.7345 19.4C80.0545 18.7333 79.5212 17.9467 79.1345 17.04C78.7612 16.12 78.5745 15.1067 78.5745 14C78.5745 12.8933 78.7679 11.8933 79.1545 11C79.5412 10.0933 80.0879 9.32 80.7945 8.68C81.5012 8.04 82.3279 7.54667 83.2745 7.2C84.2212 6.85333 85.2479 6.68 86.3545 6.68C87.3412 6.68 88.2279 6.82 89.0145 7.1C89.8012 7.38 90.4945 7.77333 91.0945 8.28C91.7079 8.77333 92.2345 9.34667 92.6745 10L89.6745 11.56C89.3545 11 88.9212 10.54 88.3745 10.18C87.8412 9.80667 87.1679 9.62 86.3545 9.62C85.5812 9.62 84.8679 9.79333 84.2145 10.14C83.5745 10.4867 83.0612 10.9867 82.6745 11.64C82.3012 12.28 82.1145 13.0667 82.1145 14C82.1145 14.92 82.2945 15.72 82.6545 16.4C83.0279 17.0667 83.5279 17.5867 84.1545 17.96C84.7945 18.32 85.5279 18.5 86.3545 18.5C86.8612 18.5 87.3212 18.44 87.7345 18.32C88.1479 18.1867 88.5012 18.0067 88.7945 17.78C89.0879 17.54 89.3345 17.2667 89.5345 16.96C89.7479 16.64 89.9145 16.3 90.0345 15.94H86.3145ZM97.7036 18.12C97.7036 18.36 97.7636 18.5667 97.8836 18.74C98.0036 18.9 98.1636 19.0267 98.3636 19.12C98.5636 19.2 98.7836 19.24 99.0236 19.24C99.3703 19.24 99.6903 19.1667 99.9836 19.02C100.277 18.8733 100.517 18.6533 100.704 18.36C100.89 18.0667 100.984 17.7067 100.984 17.28L101.304 18.48C101.304 19.0667 101.144 19.5667 100.824 19.98C100.504 20.38 100.09 20.6867 99.5836 20.9C99.0769 21.1 98.5303 21.2 97.9436 21.2C97.3569 21.2 96.8103 21.0933 96.3036 20.88C95.8103 20.6533 95.4103 20.32 95.1036 19.88C94.8103 19.44 94.6636 18.9067 94.6636 18.28C94.6636 17.4 94.9769 16.7067 95.6036 16.2C96.2303 15.68 97.1169 15.42 98.2636 15.42C98.8236 15.42 99.3236 15.4733 99.7636 15.58C100.217 15.6867 100.604 15.82 100.924 15.98C101.244 16.14 101.484 16.3067 101.644 16.48V17.82C101.324 17.58 100.95 17.4 100.524 17.28C100.11 17.1467 99.6703 17.08 99.2036 17.08C98.8436 17.08 98.5569 17.12 98.3436 17.2C98.1303 17.28 97.9703 17.4 97.8636 17.56C97.7569 17.7067 97.7036 17.8933 97.7036 18.12ZM96.3636 14.62L95.3436 12.6C95.8636 12.3467 96.4903 12.1067 97.2236 11.88C97.9569 11.6533 98.7569 11.54 99.6236 11.54C100.437 11.54 101.164 11.66 101.804 11.9C102.444 12.1267 102.95 12.46 103.324 12.9C103.697 13.34 103.884 13.88 103.884 14.52V21H100.984V15.2C100.984 14.9733 100.944 14.78 100.864 14.62C100.797 14.4467 100.69 14.3 100.544 14.18C100.397 14.06 100.21 13.9733 99.9836 13.92C99.7703 13.8667 99.5236 13.84 99.2436 13.84C98.8303 13.84 98.4236 13.8867 98.0236 13.98C97.6369 14.0733 97.2969 14.1867 97.0036 14.32C96.7103 14.44 96.4969 14.54 96.3636 14.62ZM105.065 11.8H111.225V14.3H105.065V11.8ZM106.685 8.6H109.585V21H106.685V8.6ZM117.192 21.2C116.125 21.2 115.199 21.0067 114.412 20.62C113.639 20.22 113.039 19.66 112.612 18.94C112.185 18.22 111.972 17.3733 111.972 16.4C111.972 15.4133 112.179 14.56 112.592 13.84C113.005 13.12 113.599 12.5667 114.372 12.18C115.159 11.7933 116.085 11.6 117.152 11.6C118.219 11.6 119.119 11.7867 119.852 12.16C120.585 12.52 121.145 13.0467 121.532 13.74C121.919 14.4333 122.112 15.2733 122.112 16.26C122.112 16.4067 122.112 16.5533 122.112 16.7C122.112 16.8333 122.099 16.9467 122.072 17.04H113.672V15.36H119.352L118.632 16.28C118.699 16.1867 118.752 16.0733 118.792 15.94C118.845 15.7933 118.872 15.6733 118.872 15.58C118.872 15.18 118.799 14.8333 118.652 14.54C118.505 14.2467 118.299 14.02 118.032 13.86C117.765 13.7 117.452 13.62 117.092 13.62C116.639 13.62 116.259 13.72 115.952 13.92C115.645 14.12 115.412 14.4267 115.252 14.84C115.105 15.24 115.025 15.7467 115.012 16.36C115.012 16.92 115.092 17.4 115.252 17.8C115.412 18.2 115.652 18.5067 115.972 18.72C116.292 18.92 116.685 19.02 117.152 19.02C117.685 19.02 118.139 18.92 118.512 18.72C118.899 18.52 119.205 18.22 119.432 17.82L122.132 18.48C121.652 19.3867 120.999 20.0667 120.172 20.52C119.359 20.9733 118.365 21.2 117.192 21.2Z" fill="white"/>
</svg>
